<mxfile host="app.diagrams.net" agent="Mozilla/5.0 (Windows NT 10.0; Win64; x64) AppleWebKit/537.36 (KHTML, like Gecko) Chrome/133.0.0.0 Safari/537.36" version="26.0.16">
  <diagram name="Page-1" id="4sKc0clIRFlzBHYphu7W">
    <mxGraphModel dx="1434" dy="772" grid="1" gridSize="10" guides="1" tooltips="1" connect="1" arrows="1" fold="1" page="1" pageScale="1" pageWidth="827" pageHeight="1169" math="0" shadow="0">
      <root>
        <mxCell id="0" />
        <mxCell id="1" parent="0" />
        <mxCell id="q_ENeEPmGV3skopXBHg1-48" value="" style="whiteSpace=wrap;html=1;dashed=1;rounded=1;" vertex="1" parent="1">
          <mxGeometry x="220" y="20" width="520" height="130" as="geometry" />
        </mxCell>
        <mxCell id="wLlMsNXpMdABEa9xwLQL-44" value="" style="whiteSpace=wrap;html=1;dashed=1;rounded=1;" parent="1" vertex="1">
          <mxGeometry x="220" y="179" width="523" height="800" as="geometry" />
        </mxCell>
        <mxCell id="wLlMsNXpMdABEa9xwLQL-17" value="" style="whiteSpace=wrap;html=1;dashed=1;rounded=1;" parent="1" vertex="1">
          <mxGeometry x="240" y="539" width="170" height="190" as="geometry" />
        </mxCell>
        <mxCell id="wLlMsNXpMdABEa9xwLQL-22" value="" style="whiteSpace=wrap;html=1;dashed=1;rounded=1;" parent="1" vertex="1">
          <mxGeometry x="450" y="765" width="280" height="180" as="geometry" />
        </mxCell>
        <mxCell id="wLlMsNXpMdABEa9xwLQL-8" value="" style="whiteSpace=wrap;html=1;dashed=1;rounded=1;" parent="1" vertex="1">
          <mxGeometry x="450" y="389" width="280" height="340" as="geometry" />
        </mxCell>
        <mxCell id="wLlMsNXpMdABEa9xwLQL-1" value="" style="whiteSpace=wrap;html=1;dashed=1;rounded=1;" parent="1" vertex="1">
          <mxGeometry x="450" y="219" width="280" height="130" as="geometry" />
        </mxCell>
        <mxCell id="wLlMsNXpMdABEa9xwLQL-2" value="" style="image;aspect=fixed;html=1;points=[];align=center;fontSize=12;image=img/lib/azure2/networking/Virtual_Networks_Classic.svg;" parent="1" vertex="1">
          <mxGeometry x="450" y="199" width="67" height="40" as="geometry" />
        </mxCell>
        <mxCell id="wLlMsNXpMdABEa9xwLQL-5" style="edgeStyle=orthogonalEdgeStyle;rounded=0;orthogonalLoop=1;jettySize=auto;html=1;" parent="1" source="wLlMsNXpMdABEa9xwLQL-3" target="wLlMsNXpMdABEa9xwLQL-4" edge="1">
          <mxGeometry relative="1" as="geometry" />
        </mxCell>
        <mxCell id="wLlMsNXpMdABEa9xwLQL-3" value="" style="image;aspect=fixed;html=1;points=[];align=center;fontSize=12;image=img/lib/azure2/networking/Application_Gateways.svg;" parent="1" vertex="1">
          <mxGeometry x="14" y="369" width="64" height="64" as="geometry" />
        </mxCell>
        <mxCell id="wLlMsNXpMdABEa9xwLQL-21" style="edgeStyle=orthogonalEdgeStyle;rounded=0;orthogonalLoop=1;jettySize=auto;html=1;" parent="1" source="wLlMsNXpMdABEa9xwLQL-4" target="wLlMsNXpMdABEa9xwLQL-19" edge="1">
          <mxGeometry relative="1" as="geometry" />
        </mxCell>
        <mxCell id="wLlMsNXpMdABEa9xwLQL-4" value="" style="image;aspect=fixed;html=1;points=[];align=center;fontSize=12;image=img/lib/azure2/networking/Firewalls.svg;" parent="1" vertex="1">
          <mxGeometry x="110" y="371" width="71" height="60" as="geometry" />
        </mxCell>
        <mxCell id="wLlMsNXpMdABEa9xwLQL-6" value="" style="image;aspect=fixed;html=1;points=[];align=center;fontSize=12;image=img/lib/azure2/containers/Container_Registries.svg;" parent="1" vertex="1">
          <mxGeometry x="450" y="54.5" width="68" height="61" as="geometry" />
        </mxCell>
        <mxCell id="wLlMsNXpMdABEa9xwLQL-12" style="edgeStyle=orthogonalEdgeStyle;rounded=0;orthogonalLoop=1;jettySize=auto;html=1;" parent="1" source="wLlMsNXpMdABEa9xwLQL-7" target="wLlMsNXpMdABEa9xwLQL-11" edge="1">
          <mxGeometry relative="1" as="geometry" />
        </mxCell>
        <mxCell id="wLlMsNXpMdABEa9xwLQL-7" value="" style="image;aspect=fixed;html=1;points=[];align=center;fontSize=12;image=img/lib/azure2/integration/API_Management_Services.svg;" parent="1" vertex="1">
          <mxGeometry x="547.5" y="253" width="65" height="60" as="geometry" />
        </mxCell>
        <mxCell id="wLlMsNXpMdABEa9xwLQL-9" value="" style="image;aspect=fixed;html=1;points=[];align=center;fontSize=12;image=img/lib/azure2/networking/Virtual_Networks_Classic.svg;" parent="1" vertex="1">
          <mxGeometry x="450" y="369" width="67" height="40" as="geometry" />
        </mxCell>
        <mxCell id="wLlMsNXpMdABEa9xwLQL-14" style="edgeStyle=orthogonalEdgeStyle;rounded=0;orthogonalLoop=1;jettySize=auto;html=1;" parent="1" source="wLlMsNXpMdABEa9xwLQL-11" target="wLlMsNXpMdABEa9xwLQL-13" edge="1">
          <mxGeometry relative="1" as="geometry" />
        </mxCell>
        <mxCell id="wLlMsNXpMdABEa9xwLQL-11" value="" style="image;aspect=fixed;html=1;points=[];align=center;fontSize=12;image=img/lib/azure2/networking/Load_Balancers.svg;" parent="1" vertex="1">
          <mxGeometry x="544" y="429" width="72" height="72" as="geometry" />
        </mxCell>
        <mxCell id="wLlMsNXpMdABEa9xwLQL-24" style="edgeStyle=orthogonalEdgeStyle;rounded=0;orthogonalLoop=1;jettySize=auto;html=1;" parent="1" source="wLlMsNXpMdABEa9xwLQL-13" target="wLlMsNXpMdABEa9xwLQL-23" edge="1">
          <mxGeometry relative="1" as="geometry" />
        </mxCell>
        <mxCell id="wLlMsNXpMdABEa9xwLQL-13" value="" style="image;aspect=fixed;html=1;points=[];align=center;fontSize=12;image=img/lib/azure2/containers/Kubernetes_Services.svg;" parent="1" vertex="1">
          <mxGeometry x="546" y="597" width="68" height="60" as="geometry" />
        </mxCell>
        <mxCell id="wLlMsNXpMdABEa9xwLQL-15" style="edgeStyle=orthogonalEdgeStyle;rounded=0;orthogonalLoop=1;jettySize=auto;html=1;entryX=0.038;entryY=0.433;entryDx=0;entryDy=0;entryPerimeter=0;" parent="1" source="wLlMsNXpMdABEa9xwLQL-4" target="wLlMsNXpMdABEa9xwLQL-7" edge="1">
          <mxGeometry relative="1" as="geometry">
            <Array as="points">
              <mxPoint x="200" y="401" />
              <mxPoint x="200" y="279" />
            </Array>
          </mxGeometry>
        </mxCell>
        <mxCell id="wLlMsNXpMdABEa9xwLQL-16" style="edgeStyle=orthogonalEdgeStyle;rounded=0;orthogonalLoop=1;jettySize=auto;html=1;exitX=0;exitY=0.697;exitDx=0;exitDy=0;exitPerimeter=0;" parent="1" source="q_ENeEPmGV3skopXBHg1-51" edge="1">
          <mxGeometry relative="1" as="geometry">
            <mxPoint x="450" y="86" as="targetPoint" />
            <mxPoint x="477.972" y="531.028" as="sourcePoint" />
            <Array as="points">
              <mxPoint x="380" y="572" />
              <mxPoint x="380" y="86" />
            </Array>
          </mxGeometry>
        </mxCell>
        <mxCell id="wLlMsNXpMdABEa9xwLQL-18" value="" style="image;aspect=fixed;html=1;points=[];align=center;fontSize=12;image=img/lib/azure2/networking/Virtual_Networks_Classic.svg;" parent="1" vertex="1">
          <mxGeometry x="240" y="519" width="67" height="40" as="geometry" />
        </mxCell>
        <mxCell id="wLlMsNXpMdABEa9xwLQL-20" style="edgeStyle=orthogonalEdgeStyle;rounded=0;orthogonalLoop=1;jettySize=auto;html=1;startArrow=classic;startFill=1;" parent="1" source="wLlMsNXpMdABEa9xwLQL-19" target="wLlMsNXpMdABEa9xwLQL-13" edge="1">
          <mxGeometry relative="1" as="geometry" />
        </mxCell>
        <mxCell id="wLlMsNXpMdABEa9xwLQL-19" value="" style="image;aspect=fixed;html=1;points=[];align=center;fontSize=12;image=img/lib/azure2/iot/Event_Hubs.svg;" parent="1" vertex="1">
          <mxGeometry x="292" y="597" width="67" height="60" as="geometry" />
        </mxCell>
        <mxCell id="wLlMsNXpMdABEa9xwLQL-23" value="" style="image;aspect=fixed;html=1;points=[];align=center;fontSize=12;image=img/lib/azure2/databases/Azure_Database_PostgreSQL_Server.svg;" parent="1" vertex="1">
          <mxGeometry x="556" y="823" width="48" height="64" as="geometry" />
        </mxCell>
        <mxCell id="wLlMsNXpMdABEa9xwLQL-25" value="" style="image;aspect=fixed;html=1;points=[];align=center;fontSize=12;image=img/lib/azure2/networking/Virtual_Networks_Classic.svg;" parent="1" vertex="1">
          <mxGeometry x="460" y="745" width="67" height="40" as="geometry" />
        </mxCell>
        <mxCell id="wLlMsNXpMdABEa9xwLQL-42" value="" style="group" parent="1" vertex="1" connectable="0">
          <mxGeometry x="582" y="653" width="140" height="59" as="geometry" />
        </mxCell>
        <mxCell id="wLlMsNXpMdABEa9xwLQL-31" value="" style="group" parent="wLlMsNXpMdABEa9xwLQL-42" vertex="1" connectable="0">
          <mxGeometry width="46.666666666666664" height="59" as="geometry" />
        </mxCell>
        <mxCell id="wLlMsNXpMdABEa9xwLQL-28" value="" style="group" parent="wLlMsNXpMdABEa9xwLQL-31" vertex="1" connectable="0">
          <mxGeometry width="46.666666666666664" height="37.54545454545455" as="geometry" />
        </mxCell>
        <mxCell id="wLlMsNXpMdABEa9xwLQL-26" value="" style="aspect=fixed;sketch=0;html=1;dashed=0;whitespace=wrap;verticalLabelPosition=bottom;verticalAlign=top;fillColor=#2875E2;strokeColor=#ffffff;points=[[0.005,0.63,0],[0.1,0.2,0],[0.9,0.2,0],[0.5,0,0],[0.995,0.63,0],[0.72,0.99,0],[0.5,1,0],[0.28,0.99,0]];shape=mxgraph.kubernetes.icon2;kubernetesLabel=1;prIcon=pod" parent="wLlMsNXpMdABEa9xwLQL-28" vertex="1">
          <mxGeometry x="7.777777777777779" width="33.52272727272727" height="32.18181818181819" as="geometry" />
        </mxCell>
        <mxCell id="wLlMsNXpMdABEa9xwLQL-27" value="" style="aspect=fixed;sketch=0;html=1;dashed=0;whitespace=wrap;verticalLabelPosition=bottom;verticalAlign=top;fillColor=#2875E2;strokeColor=#ffffff;points=[[0.005,0.63,0],[0.1,0.2,0],[0.9,0.2,0],[0.5,0,0],[0.995,0.63,0],[0.72,0.99,0],[0.5,1,0],[0.28,0.99,0]];shape=mxgraph.kubernetes.icon2;kubernetesLabel=1;prIcon=pod" parent="wLlMsNXpMdABEa9xwLQL-28" vertex="1">
          <mxGeometry y="5.363636363636364" width="33.52272727272727" height="32.18181818181819" as="geometry" />
        </mxCell>
        <mxCell id="wLlMsNXpMdABEa9xwLQL-29" value="&lt;font style=&quot;font-size: 11px;&quot;&gt;Back&amp;nbsp;&lt;/font&gt;&lt;div&gt;&lt;font style=&quot;font-size: 11px;&quot;&gt;Services&lt;/font&gt;&lt;/div&gt;" style="text;strokeColor=none;align=center;fillColor=none;html=1;verticalAlign=middle;whiteSpace=wrap;rounded=0;" parent="wLlMsNXpMdABEa9xwLQL-31" vertex="1">
          <mxGeometry y="38.88636363636364" width="46.666666666666664" height="20.113636363636363" as="geometry" />
        </mxCell>
        <mxCell id="wLlMsNXpMdABEa9xwLQL-32" value="" style="group" parent="wLlMsNXpMdABEa9xwLQL-42" vertex="1" connectable="0">
          <mxGeometry x="46.666666666666664" width="46.666666666666664" height="59" as="geometry" />
        </mxCell>
        <mxCell id="wLlMsNXpMdABEa9xwLQL-33" value="" style="group" parent="wLlMsNXpMdABEa9xwLQL-32" vertex="1" connectable="0">
          <mxGeometry width="46.666666666666664" height="37.54545454545455" as="geometry" />
        </mxCell>
        <mxCell id="wLlMsNXpMdABEa9xwLQL-34" value="" style="aspect=fixed;sketch=0;html=1;dashed=0;whitespace=wrap;verticalLabelPosition=bottom;verticalAlign=top;fillColor=#2875E2;strokeColor=#ffffff;points=[[0.005,0.63,0],[0.1,0.2,0],[0.9,0.2,0],[0.5,0,0],[0.995,0.63,0],[0.72,0.99,0],[0.5,1,0],[0.28,0.99,0]];shape=mxgraph.kubernetes.icon2;kubernetesLabel=1;prIcon=pod" parent="wLlMsNXpMdABEa9xwLQL-33" vertex="1">
          <mxGeometry x="7.777777777777779" width="33.52272727272727" height="32.18181818181819" as="geometry" />
        </mxCell>
        <mxCell id="wLlMsNXpMdABEa9xwLQL-35" value="" style="aspect=fixed;sketch=0;html=1;dashed=0;whitespace=wrap;verticalLabelPosition=bottom;verticalAlign=top;fillColor=#2875E2;strokeColor=#ffffff;points=[[0.005,0.63,0],[0.1,0.2,0],[0.9,0.2,0],[0.5,0,0],[0.995,0.63,0],[0.72,0.99,0],[0.5,1,0],[0.28,0.99,0]];shape=mxgraph.kubernetes.icon2;kubernetesLabel=1;prIcon=pod" parent="wLlMsNXpMdABEa9xwLQL-33" vertex="1">
          <mxGeometry y="5.363636363636364" width="33.52272727272727" height="32.18181818181819" as="geometry" />
        </mxCell>
        <mxCell id="wLlMsNXpMdABEa9xwLQL-36" value="&lt;span style=&quot;font-size: 11px;&quot;&gt;GraphQL&lt;/span&gt;&lt;div&gt;&lt;span style=&quot;font-size: 11px;&quot;&gt;Services&lt;/span&gt;&lt;/div&gt;" style="text;strokeColor=none;align=center;fillColor=none;html=1;verticalAlign=middle;whiteSpace=wrap;rounded=0;" parent="wLlMsNXpMdABEa9xwLQL-32" vertex="1">
          <mxGeometry y="38.88636363636364" width="46.666666666666664" height="20.113636363636363" as="geometry" />
        </mxCell>
        <mxCell id="wLlMsNXpMdABEa9xwLQL-37" value="" style="group" parent="wLlMsNXpMdABEa9xwLQL-42" vertex="1" connectable="0">
          <mxGeometry x="93.33333333333333" width="46.666666666666664" height="59" as="geometry" />
        </mxCell>
        <mxCell id="wLlMsNXpMdABEa9xwLQL-38" value="" style="group" parent="wLlMsNXpMdABEa9xwLQL-37" vertex="1" connectable="0">
          <mxGeometry width="46.666666666666664" height="37.54545454545455" as="geometry" />
        </mxCell>
        <mxCell id="wLlMsNXpMdABEa9xwLQL-39" value="" style="aspect=fixed;sketch=0;html=1;dashed=0;whitespace=wrap;verticalLabelPosition=bottom;verticalAlign=top;fillColor=#2875E2;strokeColor=#ffffff;points=[[0.005,0.63,0],[0.1,0.2,0],[0.9,0.2,0],[0.5,0,0],[0.995,0.63,0],[0.72,0.99,0],[0.5,1,0],[0.28,0.99,0]];shape=mxgraph.kubernetes.icon2;kubernetesLabel=1;prIcon=pod" parent="wLlMsNXpMdABEa9xwLQL-38" vertex="1">
          <mxGeometry x="7.777777777777779" width="33.52272727272727" height="32.18181818181819" as="geometry" />
        </mxCell>
        <mxCell id="wLlMsNXpMdABEa9xwLQL-40" value="" style="aspect=fixed;sketch=0;html=1;dashed=0;whitespace=wrap;verticalLabelPosition=bottom;verticalAlign=top;fillColor=#2875E2;strokeColor=#ffffff;points=[[0.005,0.63,0],[0.1,0.2,0],[0.9,0.2,0],[0.5,0,0],[0.995,0.63,0],[0.72,0.99,0],[0.5,1,0],[0.28,0.99,0]];shape=mxgraph.kubernetes.icon2;kubernetesLabel=1;prIcon=pod" parent="wLlMsNXpMdABEa9xwLQL-38" vertex="1">
          <mxGeometry y="6.704545454545456" width="32.12818181818182" height="30.840909090909097" as="geometry" />
        </mxCell>
        <mxCell id="wLlMsNXpMdABEa9xwLQL-41" value="&lt;span style=&quot;font-size: 11px;&quot;&gt;Rest&lt;/span&gt;&lt;br&gt;&lt;div&gt;&lt;span style=&quot;font-size: 11px;&quot;&gt;Services&lt;/span&gt;&lt;/div&gt;" style="text;strokeColor=none;align=center;fillColor=none;html=1;verticalAlign=middle;whiteSpace=wrap;rounded=0;" parent="wLlMsNXpMdABEa9xwLQL-37" vertex="1">
          <mxGeometry y="38.88636363636364" width="46.666666666666664" height="20.113636363636363" as="geometry" />
        </mxCell>
        <mxCell id="wLlMsNXpMdABEa9xwLQL-45" style="edgeStyle=orthogonalEdgeStyle;rounded=0;orthogonalLoop=1;jettySize=auto;html=1;entryX=0.015;entryY=0.516;entryDx=0;entryDy=0;entryPerimeter=0;" parent="1" source="wLlMsNXpMdABEa9xwLQL-4" edge="1" target="wLlMsNXpMdABEa9xwLQL-6">
          <mxGeometry relative="1" as="geometry">
            <mxPoint x="760" y="149" as="targetPoint" />
            <Array as="points">
              <mxPoint x="146" y="86" />
            </Array>
          </mxGeometry>
        </mxCell>
        <mxCell id="wLlMsNXpMdABEa9xwLQL-47" style="edgeStyle=orthogonalEdgeStyle;rounded=0;orthogonalLoop=1;jettySize=auto;html=1;" parent="1" source="wLlMsNXpMdABEa9xwLQL-46" target="wLlMsNXpMdABEa9xwLQL-3" edge="1">
          <mxGeometry relative="1" as="geometry" />
        </mxCell>
        <mxCell id="wLlMsNXpMdABEa9xwLQL-46" value="" style="shape=image;html=1;verticalAlign=top;verticalLabelPosition=bottom;labelBackgroundColor=#ffffff;imageAspect=0;aspect=fixed;image=https://cdn1.iconfinder.com/data/icons/nuvola2/128x128/apps/kuser.png" parent="1" vertex="1">
          <mxGeometry x="10" y="242" width="71" height="71" as="geometry" />
        </mxCell>
        <mxCell id="wLlMsNXpMdABEa9xwLQL-50" style="edgeStyle=orthogonalEdgeStyle;rounded=0;orthogonalLoop=1;jettySize=auto;html=1;" parent="1" source="wLlMsNXpMdABEa9xwLQL-49" target="wLlMsNXpMdABEa9xwLQL-3" edge="1">
          <mxGeometry relative="1" as="geometry" />
        </mxCell>
        <mxCell id="wLlMsNXpMdABEa9xwLQL-49" value="" style="image;sketch=0;aspect=fixed;html=1;points=[];align=center;fontSize=12;image=img/lib/mscae/App_Service_IPAddress.svg;" parent="1" vertex="1">
          <mxGeometry x="21" y="501" width="50" height="42" as="geometry" />
        </mxCell>
        <mxCell id="wLlMsNXpMdABEa9xwLQL-51" value="" style="image;aspect=fixed;html=1;points=[];align=center;fontSize=12;image=img/lib/azure2/networking/Virtual_Networks.svg;" parent="1" vertex="1">
          <mxGeometry x="260" y="160" width="67" height="40" as="geometry" />
        </mxCell>
        <mxCell id="q_ENeEPmGV3skopXBHg1-49" value="" style="image;aspect=fixed;html=1;points=[];align=center;fontSize=12;image=img/lib/azure2/networking/Virtual_Networks_Classic.svg;" vertex="1" parent="1">
          <mxGeometry x="220" width="67" height="40" as="geometry" />
        </mxCell>
        <mxCell id="q_ENeEPmGV3skopXBHg1-51" value="" style="image;aspect=fixed;html=1;points=[];align=center;fontSize=12;image=img/lib/azure2/networking/Resource_Management_Private_Link.svg;" vertex="1" parent="1">
          <mxGeometry x="476" y="526" width="68" height="66" as="geometry" />
        </mxCell>
      </root>
    </mxGraphModel>
  </diagram>
</mxfile>
